<svg width="1920" height="960" viewBox="0 0 1920 960" fill="none" xmlns="http://www.w3.org/2000/svg">
<g clip-path="url(#clip0_37_6207)">
<rect width="1920" height="960" fill="#111111"/>
<g opacity="0.8">
<g filter="url(#filter0_bf_37_6207)">
<ellipse cx="1465" cy="623.639" rx="455" ry="213.907" fill="#DC3618"/>
</g>
<g filter="url(#filter1_bf_37_6207)">
<ellipse cx="275.758" cy="222.502" rx="275.758" ry="222.502" transform="matrix(0.866726 -0.498785 0.501216 0.865322 1157.84 275.088)" fill="#38D0D0" fill-opacity="0.7"/>
</g>
<g filter="url(#filter2_bf_37_6207)">
<ellipse cx="188.234" cy="187.732" rx="188.234" ry="187.732" transform="matrix(0.9553 -0.295639 0.297392 0.954756 1441.45 586.856)" fill="#DC3618"/>
</g>
<g filter="url(#filter3_bf_37_6207)">
<ellipse cx="188.234" cy="187.732" rx="188.234" ry="187.732" transform="matrix(0.9553 -0.295639 0.297392 0.954756 1356.2 601.525)" fill="#0071BD" fill-opacity="0.7"/>
</g>
<g filter="url(#filter4_bf_37_6207)">
<ellipse cx="1524.45" cy="775.312" rx="259.466" ry="170.306" fill="#F0C400" fill-opacity="0.3"/>
</g>
<g filter="url(#filter5_bf_37_6207)">
<ellipse cx="188.234" cy="187.732" rx="188.234" ry="187.732" transform="matrix(0.9553 -0.295639 0.297392 0.954756 1329.33 385.382)" fill="#F49343" fill-opacity="0.4"/>
</g>
</g>
<g style="mix-blend-mode:overlay">
<rect x="50" y="50" width="1820" height="860" fill="white"/>
</g>
<g clip-path="url(#clip1_37_6207)">
<path d="M564.266 526.667L606.255 433.333H623.318L665.44 526.667H647.311L611.187 442.533H618.119L582.128 526.667H564.266ZM583.595 505.067L588.26 491.467H638.647L643.312 505.067H583.595Z" fill="white"/>
<path d="M677.307 526.667V433.333H694.636V512H743.423V526.667H677.307Z" fill="white"/>
<path d="M757.104 526.667V433.333H795.494C803.758 433.333 810.823 434.667 816.688 437.333C822.642 440 827.219 443.822 830.418 448.8C833.617 453.778 835.217 459.689 835.217 466.533C835.217 473.378 833.617 479.289 830.418 484.267C827.219 489.244 822.642 493.067 816.688 495.733C810.823 498.4 803.758 499.733 795.494 499.733H766.701L774.433 491.6V526.667H757.104ZM774.433 493.467L766.701 485.067H794.694C802.337 485.067 808.068 483.467 811.89 480.267C815.8 476.978 817.755 472.4 817.755 466.533C817.755 460.578 815.8 456 811.89 452.8C808.068 449.6 802.337 448 794.694 448H766.701L774.433 439.467V493.467Z" fill="white"/>
<path d="M918.105 433.333H935.434V526.667H918.105V433.333ZM869.851 526.667H852.522V433.333H869.851V526.667ZM919.438 486.667H868.384V471.867H919.438V486.667Z" fill="white"/>
<path d="M947.24 526.667L989.229 433.333H1006.29L1048.41 526.667H1030.29L994.161 442.533H1001.09L965.102 526.667H947.24ZM966.568 505.067L971.234 491.467H1021.62L1026.29 505.067H966.568Z" fill="white"/>
<path d="M1140.31 528C1133.2 528 1126.58 526.844 1120.45 524.533C1114.4 522.133 1109.12 518.8 1104.58 514.533C1100.14 510.178 1096.68 505.067 1094.19 499.2C1091.7 493.333 1090.45 486.933 1090.45 480C1090.45 473.067 1091.7 466.667 1094.19 460.8C1096.68 454.933 1100.19 449.867 1104.72 445.6C1109.25 441.244 1114.54 437.911 1120.58 435.6C1126.62 433.2 1133.24 432 1140.44 432C1148.08 432 1155.06 433.333 1161.37 436C1167.68 438.578 1173.01 442.444 1177.37 447.6L1166.17 458.133C1162.79 454.489 1159.01 451.778 1154.84 450C1150.66 448.133 1146.13 447.2 1141.24 447.2C1136.35 447.2 1131.87 448 1127.78 449.6C1123.78 451.2 1120.27 453.467 1117.25 456.4C1114.32 459.333 1112 462.8 1110.32 466.8C1108.72 470.8 1107.92 475.2 1107.92 480C1107.92 484.8 1108.72 489.2 1110.32 493.2C1112 497.2 1114.32 500.667 1117.25 503.6C1120.27 506.533 1123.78 508.8 1127.78 510.4C1131.87 512 1136.35 512.8 1141.24 512.8C1146.13 512.8 1150.66 511.911 1154.84 510.133C1159.01 508.267 1162.79 505.467 1166.17 501.733L1177.37 512.4C1173.01 517.467 1167.68 521.333 1161.37 524C1155.06 526.667 1148.04 528 1140.31 528Z" fill="white"/>
<path d="M1235.57 526.667V512.267L1234.64 509.2V484C1234.64 479.111 1233.18 475.333 1230.24 472.667C1227.31 469.911 1222.87 468.533 1216.91 468.533C1212.91 468.533 1208.96 469.156 1205.05 470.4C1201.23 471.644 1197.98 473.378 1195.32 475.6L1188.79 463.467C1192.61 460.533 1197.14 458.356 1202.38 456.933C1207.72 455.422 1213.22 454.667 1218.91 454.667C1229.22 454.667 1237.17 457.156 1242.77 462.133C1248.46 467.022 1251.3 474.622 1251.3 484.933V526.667H1235.57ZM1213.18 527.6C1207.85 527.6 1203.18 526.711 1199.18 524.933C1195.19 523.067 1192.07 520.533 1189.85 517.333C1187.72 514.044 1186.65 510.356 1186.65 506.267C1186.65 502.267 1187.59 498.667 1189.45 495.467C1191.41 492.267 1194.56 489.733 1198.92 487.867C1203.27 486 1209.05 485.067 1216.25 485.067H1236.91V496.133H1217.45C1211.76 496.133 1207.94 497.067 1205.98 498.933C1204.03 500.711 1203.05 502.933 1203.05 505.6C1203.05 508.622 1204.25 511.022 1206.65 512.8C1209.05 514.578 1212.38 515.467 1216.65 515.467C1220.73 515.467 1224.38 514.533 1227.58 512.667C1230.86 510.8 1233.22 508.044 1234.64 504.4L1237.44 514.4C1235.84 518.578 1232.95 521.822 1228.78 524.133C1224.69 526.444 1219.49 527.6 1213.18 527.6Z" fill="white"/>
<path d="M1294.68 527.6C1288.73 527.6 1283 526.844 1277.49 525.333C1272.07 523.733 1267.76 521.822 1264.56 519.6L1270.96 506.933C1274.15 508.978 1277.98 510.667 1282.42 512C1286.86 513.333 1291.31 514 1295.75 514C1300.99 514 1304.77 513.289 1307.08 511.867C1309.48 510.444 1310.68 508.533 1310.68 506.133C1310.68 504.178 1309.88 502.711 1308.28 501.733C1306.68 500.667 1304.59 499.867 1302.01 499.333C1299.44 498.8 1296.55 498.311 1293.35 497.867C1290.24 497.422 1287.08 496.844 1283.89 496.133C1280.77 495.333 1277.93 494.222 1275.35 492.8C1272.78 491.289 1270.69 489.289 1269.09 486.8C1267.49 484.311 1266.69 481.022 1266.69 476.933C1266.69 472.4 1267.98 468.489 1270.56 465.2C1273.13 461.822 1276.73 459.244 1281.35 457.467C1286.06 455.6 1291.62 454.667 1298.01 454.667C1302.81 454.667 1307.66 455.2 1312.54 456.267C1317.43 457.333 1321.48 458.844 1324.67 460.8L1318.28 473.467C1314.9 471.422 1311.48 470.044 1308.01 469.333C1304.64 468.533 1301.26 468.133 1297.88 468.133C1292.82 468.133 1289.04 468.889 1286.55 470.4C1284.15 471.911 1282.95 473.822 1282.95 476.133C1282.95 478.267 1283.75 479.867 1285.35 480.933C1286.95 482 1289.04 482.844 1291.62 483.467C1294.19 484.089 1297.04 484.622 1300.15 485.067C1303.35 485.422 1306.5 486 1309.61 486.8C1312.72 487.6 1315.57 488.711 1318.14 490.133C1320.81 491.467 1322.94 493.378 1324.54 495.867C1326.14 498.356 1326.94 501.6 1326.94 505.6C1326.94 510.044 1325.61 513.911 1322.94 517.2C1320.36 520.489 1316.68 523.067 1311.88 524.933C1307.08 526.711 1301.35 527.6 1294.68 527.6Z" fill="white"/>
<path d="M1368.08 527.6C1360.26 527.6 1354.22 525.6 1349.95 521.6C1345.69 517.511 1343.56 511.511 1343.56 503.6V439.733H1360.22V503.2C1360.22 506.578 1361.06 509.2 1362.75 511.067C1364.53 512.933 1366.97 513.867 1370.08 513.867C1373.81 513.867 1376.93 512.889 1379.41 510.933L1384.08 522.8C1382.12 524.4 1379.72 525.6 1376.88 526.4C1374.04 527.2 1371.1 527.6 1368.08 527.6ZM1331.83 469.333V456H1379.28V469.333H1331.83Z" fill="white"/>
<path d="M352.824 436.053C354.917 432.427 360.149 432.427 362.241 436.053L409.329 517.632C411.422 521.257 408.806 525.789 404.62 525.789H310.445C306.26 525.789 303.644 521.257 305.737 517.632L352.824 436.053Z" fill="#30A9DE"/>
<path d="M432.511 440C432.511 436.318 435.495 433.333 439.176 433.333H518.278C521.959 433.333 524.943 436.318 524.943 440V519.123C524.943 522.805 521.959 525.789 518.278 525.789H439.176C435.495 525.789 432.511 522.805 432.511 519.123V440Z" fill="#FF7F50"/>
</g>
</g>
<defs>
<filter id="filter0_bf_37_6207" x="950.501" y="350.233" width="1029" height="546.812" filterUnits="userSpaceOnUse" color-interpolation-filters="sRGB">
<feFlood flood-opacity="0" result="BackgroundImageFix"/>
<feGaussianBlur in="BackgroundImageFix" stdDeviation="9.91649"/>
<feComposite in2="SourceAlpha" operator="in" result="effect1_backgroundBlur_37_6207"/>
<feBlend mode="normal" in="SourceGraphic" in2="effect1_backgroundBlur_37_6207" result="shape"/>
<feGaussianBlur stdDeviation="29.7495" result="effect2_foregroundBlur_37_6207"/>
</filter>
<filter id="filter1_bf_37_6207" x="1145.39" y="-5.72208" width="725.945" height="671.604" filterUnits="userSpaceOnUse" color-interpolation-filters="sRGB">
<feFlood flood-opacity="0" result="BackgroundImageFix"/>
<feGaussianBlur in="BackgroundImageFix" stdDeviation="9.91649"/>
<feComposite in2="SourceAlpha" operator="in" result="effect1_backgroundBlur_37_6207"/>
<feBlend mode="normal" in="SourceGraphic" in2="effect1_backgroundBlur_37_6207" result="shape"/>
<feGaussianBlur stdDeviation="49.5824" result="effect2_foregroundBlur_37_6207"/>
</filter>
<filter id="filter2_bf_37_6207" x="1429.26" y="463.218" width="495.672" height="494.454" filterUnits="userSpaceOnUse" color-interpolation-filters="sRGB">
<feFlood flood-opacity="0" result="BackgroundImageFix"/>
<feGaussianBlur in="BackgroundImageFix" stdDeviation="9.91649"/>
<feComposite in2="SourceAlpha" operator="in" result="effect1_backgroundBlur_37_6207"/>
<feBlend mode="normal" in="SourceGraphic" in2="effect1_backgroundBlur_37_6207" result="shape"/>
<feGaussianBlur stdDeviation="29.7495" result="effect2_foregroundBlur_37_6207"/>
</filter>
<filter id="filter3_bf_37_6207" x="1344.02" y="477.886" width="495.672" height="494.454" filterUnits="userSpaceOnUse" color-interpolation-filters="sRGB">
<feFlood flood-opacity="0" result="BackgroundImageFix"/>
<feGaussianBlur in="BackgroundImageFix" stdDeviation="9.91649"/>
<feComposite in2="SourceAlpha" operator="in" result="effect1_backgroundBlur_37_6207"/>
<feBlend mode="normal" in="SourceGraphic" in2="effect1_backgroundBlur_37_6207" result="shape"/>
<feGaussianBlur stdDeviation="29.7495" result="effect2_foregroundBlur_37_6207"/>
</filter>
<filter id="filter4_bf_37_6207" x="1205.48" y="545.507" width="637.93" height="459.61" filterUnits="userSpaceOnUse" color-interpolation-filters="sRGB">
<feFlood flood-opacity="0" result="BackgroundImageFix"/>
<feGaussianBlur in="BackgroundImageFix" stdDeviation="9.91649"/>
<feComposite in2="SourceAlpha" operator="in" result="effect1_backgroundBlur_37_6207"/>
<feBlend mode="normal" in="SourceGraphic" in2="effect1_backgroundBlur_37_6207" result="shape"/>
<feGaussianBlur stdDeviation="29.7495" result="effect2_foregroundBlur_37_6207"/>
</filter>
<filter id="filter5_bf_37_6207" x="1317.15" y="261.743" width="495.672" height="494.454" filterUnits="userSpaceOnUse" color-interpolation-filters="sRGB">
<feFlood flood-opacity="0" result="BackgroundImageFix"/>
<feGaussianBlur in="BackgroundImageFix" stdDeviation="9.91649"/>
<feComposite in2="SourceAlpha" operator="in" result="effect1_backgroundBlur_37_6207"/>
<feBlend mode="normal" in="SourceGraphic" in2="effect1_backgroundBlur_37_6207" result="shape"/>
<feGaussianBlur stdDeviation="29.7495" result="effect2_foregroundBlur_37_6207"/>
</filter>
<clipPath id="clip0_37_6207">
<rect width="1920" height="960" fill="white"/>
</clipPath>
<clipPath id="clip1_37_6207">
<rect width="1079.72" height="100" fill="white" transform="translate(305 430)"/>
</clipPath>
</defs>
</svg>
